<svg xmlns="http://www.w3.org/2000/svg" viewBox="0 0 100 100">
<rect width="100" height="100" rx="22" fill="#6d28d9"/>
<ellipse cx="30" cy="26" rx="7" ry="10" fill="#fde68a" transform="rotate(-20 30 26)"/>
<ellipse cx="70" cy="26" rx="7" ry="10" fill="#fde68a" transform="rotate(20 70 26)"/>
<path d="M 50 24 C 74 24 82 46 82 58 C 82 76 68 88 50 88 C 32 88 18 76 18 58 C 18 46 26 24 50 24 Z" fill="#fbbf24"/>
<circle cx="39" cy="54" r="8" fill="#fff"/><circle cx="61" cy="54" r="8" fill="#fff"/>
<circle cx="40" cy="55" r="4" fill="#1b1233"/><circle cx="62" cy="55" r="4" fill="#1b1233"/>
<path d="M 42 70 q 8 7 16 0" stroke="#1b1233" stroke-width="3" fill="none" stroke-linecap="round"/></svg>